Coordinates
version=1
nRows=14
nColumns=63
inDegrees=yes

Units are S.I. units (second, meters, Newtons, ...)
If the header above contains a line with 'inDegrees', this indicates whether rotational values are in degrees (yes) or radians (no).

endheader
time	pelvis_tilt	pelvis_list	pelvis_rotation	pelvis_tx	pelvis_ty	pelvis_tz	hip_flexion_r	hip_adduction_r	hip_rotation_r	knee_angle_r	knee_angle_r_beta	ankle_angle_r	subtalar_angle_r	mtp_angle_r	hip_flexion_l	hip_adduction_l	hip_rotation_l	knee_angle_l	knee_angle_l_beta	ankle_angle_l	subtalar_angle_l	mtp_angle_l	L5_S1_Flex_Ext	L5_S1_Lat_Bending	L5_S1_axial_rotation	L4_L5_Flex_Ext	L4_L5_Lat_Bending	L4_L5_axial_rotation	L3_L4_Flex_Ext	L3_L4_Lat_Bending	L3_L4_axial_rotation	L2_L3_Flex_Ext	L2_L3_Lat_Bending	L2_L3_axial_rotation	L1_L2_Flex_Ext	L1_L2_Lat_Bending	L1_L2_axial_rotation	L1_T12_Flex_Ext	L1_T12_Lat_Bending	L1_T12_axial_rotation	Abs_r3	Abs_r2	Abs_r1	Abs_t1	Abs_t2	neck_flexion	neck_bending	neck_rotation	arm_flex_r	arm_add_r	arm_rot_r	elbow_flex_r	pro_sup_r	wrist_flex_r	wrist_dev_r	arm_flex_l	arm_add_l	arm_rot_l	elbow_flex_l	pro_sup_l	wrist_flex_l	wrist_dev_l
0.883333	2.640902	-4.305951	100.315697	0.011833	0.999284	0.676543	-0.914823	-0.004209	9.696850	0.414143	0.007228	25.655562	-14.106866	0.000000	2.381511	-0.501071	20.140022	1.798210	0.031385	27.869279	-15.175727	0.000000	0.301180	-0.145727	-1.143601	0.559321	-0.193817	-1.215076	0.494808	-0.354320	-1.215076	0.344218	-0.354320	-1.000651	0.279675	-0.297166	-0.929176	0.172094	-0.225731	-0.857701	2.151296	-1.648490	-6.360364	0.000000	0.000000	27.125690	13.704641	5.779705	15.045203	-10.474535	75.206619	45.693145	13.752507	9.205390	2.275178	15.497144	-15.411209	62.343640	55.896431	73.598453	-2.543870	-9.920021
0.900000	2.577356	-4.380900	100.111169	0.012174	0.999479	0.676788	-0.762366	-0.080059	9.980874	0.435898	0.007608	25.743618	-14.087883	0.000000	2.579792	-0.371282	19.361779	2.149219	0.037511	27.947796	-14.761701	0.000000	0.312538	-0.170643	-1.098914	0.580414	-0.226955	-1.167596	0.513469	-0.414900	-1.167596	0.357200	-0.414900	-0.961550	0.290223	-0.347974	-0.892867	0.178584	-0.264325	-0.824185	2.232428	-1.930343	-6.111828	0.000000	0.000000	27.156499	13.979817	4.941426	15.377293	-11.057647	73.220424	47.721706	19.612119	11.765434	1.853384	16.691471	-16.645849	62.922952	58.063696	73.937265	-2.226762	-9.962341
0.916667	2.563178	-4.418196	99.939485	0.012404	0.999715	0.677117	-0.635643	-0.097120	10.299104	0.467423	0.008158	25.786674	-14.140606	0.000000	2.761365	-0.297691	18.576339	2.517990	0.043947	28.042173	-14.303403	0.000000	0.321968	-0.185021	-1.058268	0.597927	-0.246079	-1.124410	0.528962	-0.449861	-1.124410	0.367978	-0.449861	-0.925984	0.298980	-0.377296	-0.859843	0.183973	-0.286598	-0.793701	2.299787	-2.093000	-5.885769	0.000000	0.000000	27.049838	14.156328	4.214197	15.921198	-11.835270	71.069774	50.132668	26.527034	14.547815	1.430951	18.062425	-17.940654	63.390686	60.404018	73.847794	-1.332039	-9.634352
0.933333	2.578040	-4.418601	99.817003	0.012563	0.999999	0.677495	-0.540730	-0.073557	10.603395	0.511626	0.008930	25.790811	-14.234316	0.000000	2.916548	-0.264875	17.800438	2.887643	0.050399	28.145206	-13.783869	0.000000	0.328010	-0.193175	-1.024404	0.609147	-0.256922	-1.088429	0.538887	-0.469685	-1.088429	0.374882	-0.469685	-0.896354	0.304590	-0.393922	-0.832328	0.187425	-0.299228	-0.768303	2.342942	-2.185231	-5.697429	0.000000	0.000000	26.857106	14.299805	3.526230	16.580423	-12.801588	68.720053	53.003402	34.009699	17.134790	1.071516	19.636246	-19.309298	63.653022	63.002179	73.721720	0.131749	-8.906287
0.950000	2.636619	-4.378357	99.723684	0.012615	1.000357	0.677883	-0.480268	0.002182	10.858235	0.570427	0.009956	25.745843	-14.327378	0.000000	3.030919	-0.286829	17.042996	3.238061	0.056515	28.249315	-13.235744	0.000000	0.330476	-0.191441	-0.991027	0.613727	-0.254617	-1.052966	0.542939	-0.465470	-1.052966	0.377701	-0.465470	-0.867148	0.306880	-0.390387	-0.805209	0.188834	-0.296542	-0.743270	2.360557	-2.165621	-5.511794	0.000000	0.000000	26.592299	14.341925	2.942463	17.285961	-13.926290	66.126661	56.382655	41.299266	19.303672	0.825632	21.431926	-20.734030	63.771563	65.839501	73.710668	1.888523	-8.044199
0.966667	2.730023	-4.293410	99.674265	0.012572	1.000832	0.678245	-0.465864	0.123059	11.032113	0.641550	0.011197	25.631973	-14.427130	0.000000	3.092021	-0.358447	16.348018	3.551054	0.061978	28.333362	-12.684937	0.000000	0.328742	-0.182075	-0.967422	0.610506	-0.242160	-1.027886	0.540090	-0.442698	-1.027886	0.375719	-0.442698	-0.846495	0.305270	-0.371288	-0.786031	0.187843	-0.282035	-0.725567	2.348170	-2.059673	-5.380513	0.000000	0.000000	26.240712	14.305298	2.476437	18.028589	-15.089568	63.283418	60.274164	47.471764	20.917898	0.714399	23.423389	-22.197848	63.561487	68.921757	74.095969	3.789060	-7.104264
0.983333	2.828570	-4.177146	99.650188	0.012511	1.001452	0.678591	-0.488901	0.256239	11.129751	0.725001	0.012654	25.453719	-14.526859	0.000000	3.106137	-0.448941	15.693926	3.823474	0.066732	28.390686	-12.121755	0.000000	0.323946	-0.170884	-0.949068	0.601600	-0.227276	-1.008385	0.532211	-0.415487	-1.008385	0.370238	-0.415487	-0.830435	0.300816	-0.348466	-0.771118	0.185103	-0.264699	-0.711801	2.313913	-1.933073	-5.278434	0.000000	0.000000	25.827553	14.248225	2.074860	18.856802	-16.170238	60.208380	64.529340	52.151444	21.966484	0.323730	25.714632	-23.723948	63.200969	72.207608	74.632835	5.689051	-6.119224
1.000000	2.915832	-4.020980	99.672462	0.012455	1.002256	0.678922	-0.566357	0.389645	11.102288	0.815734	0.014237	25.216895	-14.600855	0.000000	3.061445	-0.546086	15.132566	4.045881	0.070614	28.403636	-11.575584	0.000000	0.314943	-0.159984	-0.948259	0.584881	-0.212778	-1.007525	0.517420	-0.388985	-1.007525	0.359949	-0.388985	-0.829727	0.292456	-0.326239	-0.770460	0.179959	-0.247815	-0.711194	2.249608	-1.809768	-5.273932	0.000000	0.000000	25.314705	14.171809	1.825587	19.879979	-17.063525	56.939778	68.931335	55.689472	22.364292	-0.391113	28.374689	-25.339517	62.730688	75.682670	75.402441	7.252738	-5.196800
1.016667	2.963152	-3.819034	99.737344	0.012475	1.003276	0.679228	-0.712193	0.499205	10.961022	0.909491	0.015874	24.929714	-14.663309	0.000000	2.945156	-0.626544	14.635765	4.213534	0.073540	28.376889	-11.005473	0.000000	0.301502	-0.154293	-0.963729	0.559920	-0.205210	-1.023962	0.495338	-0.375148	-1.023962	0.344587	-0.375148	-0.843263	0.279975	-0.314634	-0.783030	0.172278	-0.239000	-0.722797	2.153602	-1.745393	-5.359973	0.000000	0.000000	24.659024	14.089250	1.651172	21.203363	-17.716714	53.430388	73.294695	59.221207	22.065030	-1.302244	31.563758	-27.122127	62.464005	79.384158	76.092037	8.179837	-4.346808
1.033333	2.990973	-3.572908	99.856259	0.012481	1.004489	0.679526	-0.922738	0.602173	10.670722	1.001799	0.017485	24.609396	-14.677432	0.000000	2.763145	-0.706252	14.262896	4.321135	0.075418	28.303598	-10.471131	0.000000	0.283781	-0.149043	-1.002977	0.527009	-0.198228	-1.065663	0.466223	-0.362384	-1.065663	0.324333	-0.362384	-0.877605	0.263519	-0.303929	-0.814919	0.162152	-0.230868	-0.752233	2.027016	-1.686009	-5.578259	0.000000	0.000000	23.866061	13.981371	1.670527	23.040802	-18.213999	50.008746	77.526993	62.823946	21.020962	-2.481357	35.323221	-29.056442	62.357311	83.310529	76.803377	8.373360	-3.573215
1.050000	2.982665	-3.297154	99.999321	0.012497	1.005875	0.679815	-1.183047	0.675203	10.260217	1.090025	0.019025	24.277324	-14.618533	0.000000	2.525198	-0.764098	13.977827	4.367829	0.076233	28.189293	-9.950222	0.000000	0.263532	-0.146974	-1.048832	0.489405	-0.195476	-1.114385	0.432956	-0.357353	-1.114385	0.301190	-0.357353	-0.917728	0.244716	-0.299710	-0.852176	0.150582	-0.227663	-0.786624	1.882381	-1.662601	-5.833292	0.000000	0.000000	22.968822	13.871226	1.774597	25.535442	-18.635604	46.973150	81.545932	65.964997	19.246499	-3.889407	39.752207	-31.105223	62.602522	87.438923	77.360844	7.635753	-2.844165
1.066667	2.965593	-2.998150	100.177123	0.012425	1.007400	0.680055	-1.486168	0.741694	9.714413	1.166844	0.020365	23.935910	-14.467410	0.000000	2.237543	-0.822218	13.832010	4.344739	0.075830	28.024172	-9.508537	0.000000	0.242889	-0.143740	-1.096434	0.451070	-0.191174	-1.164962	0.399043	-0.349490	-1.164962	0.277598	-0.349490	-0.959380	0.225547	-0.293115	-0.890853	0.138787	-0.222653	-0.822326	1.734933	-1.626017	-6.098040	0.000000	0.000000	21.994554	13.725422	1.947276	28.747500	-19.088983	44.521799	85.274673	68.595692	16.572066	-5.549203	44.796460	-33.127816	63.063706	91.628494	77.797857	6.199758	-2.129081
1.083333	2.917990	-2.680478	100.355246	0.012314	1.009033	0.680266	-1.823127	0.776469	9.052109	1.234579	0.021547	23.632788	-14.169844	0.000000	1.906789	-0.856237	13.752396	4.272198	0.074564	27.838723	-9.086725	0.000000	0.220139	-0.143533	-1.133400	0.408820	-0.190899	-1.204237	0.361666	-0.348986	-1.204237	0.251596	-0.348986	-0.991725	0.204421	-0.292692	-0.920887	0.125787	-0.222332	-0.850050	1.572428	-1.623673	-6.303630	0.000000	0.000000	21.048880	13.587523	2.047068	32.692096	-19.590264	42.785893	88.562451	70.316141	13.067100	-7.348935	50.414512	-35.016950	63.643969	95.751775	78.619421	4.072793	-1.354930
1.100000	2.860249	-2.352424	100.544539	0.012108	1.010712	0.680372	-2.187551	0.797879	8.287269	1.286508	0.022454	23.369287	-13.749795	0.000000	1.535891	-0.882312	13.774058	4.140505	0.072265	27.619035	-8.746155	0.000000	0.198588	-0.144126	-1.161611	0.368797	-0.191687	-1.234212	0.326260	-0.350427	-1.234212	0.226966	-0.350427	-1.016410	0.184409	-0.293901	-0.943809	0.113473	-0.223251	-0.871209	1.418493	-1.630379	-6.460534	0.000000	0.000000	20.141829	13.455318	2.075355	37.327532	-20.158440	41.834405	91.280927	70.977304	8.635767	-9.293407	56.484601	-36.637024	64.253912	99.577295	79.472724	1.724542	-0.519679
